<svg width="6" height="10" viewBox="0 0 6 10" fill="none" xmlns="http://www.w3.org/2000/svg">
<path d="M2.42283 7.32093C2.4186 7.17606 2.41649 7.0674 2.41649 6.99497C2.41649 6.56841 2.47992 6.2002 2.60677 5.89034C2.69979 5.65694 2.84989 5.42153 3.05708 5.1841C3.2093 5.01107 3.48203 4.75956 3.87526 4.42958C4.27273 4.09557 4.53066 3.82998 4.64905 3.6328C4.76744 3.43561 4.82664 3.22032 4.82664 2.98692C4.82664 2.56439 4.65328 2.19416 4.30655 1.87626C3.95983 1.55433 3.53488 1.39336 3.03171 1.39336C2.54545 1.39336 2.13953 1.53823 1.81395 1.82797C1.48837 2.11771 1.27484 2.57042 1.17336 3.18612L0 3.05332C0.105708 2.22837 0.418605 1.59658 0.938689 1.15795C1.463 0.719316 2.15433 0.5 3.01269 0.5C3.92178 0.5 4.64693 0.735412 5.18816 1.20624C5.72939 1.67706 6 2.24648 6 2.91449C6 3.3008 5.90486 3.65694 5.71459 3.9829C5.52431 4.30885 5.15222 4.70523 4.59831 5.17203C4.22622 5.48592 3.98309 5.7173 3.86892 5.8662C3.75476 6.01509 3.67019 6.18612 3.61522 6.37928C3.56025 6.57243 3.52854 6.88632 3.52008 7.32093H2.42283ZM2.35307 9.5V8.26258H3.65328V9.5H2.35307Z" fill="white"/>
</svg>
